<?xml version="1.0" encoding="utf-8"?>
<!-- Generator: Adobe Illustrator 23.0.1, SVG Export Plug-In . SVG Version: 6.00 Build 0)  -->
<svg version="1.1" id="Layer_1" xmlns="http://www.w3.org/2000/svg" xmlns:xlink="http://www.w3.org/1999/xlink" x="0px" y="0px"
	 viewBox="0 0 432.16 121.62" style="enable-background:new 0 0 432.16 121.62;" xml:space="preserve">
<style type="text/css">
	.st0{fill:#FFC805;}
</style>
<g>
	<path class="st0" d="M8.56,66.56c3.32-1.83,6.59-2.25,10.39-2.21c0,3.99,0,7.88,0,12.22c1.4-0.3,2.36-0.4,3.23-0.72
		c12.52-4.64,25.01-9.4,37.56-13.96c12.9-4.7,25.87-9.23,38.82-13.79c2.09-0.74,4.28-1.22,7.01-1.98c-0.59,2.14-1.55,3.23-3.02,3.95
		c-2.25,1.09-4.45,2.15-5.65,4.64c-0.36,0.76-1.55,1.23-2.44,1.62c-6.63,2.87-13.03,6.31-20.08,8.19c-2.5,0.67-4.92,1.83-7.23,3.04
		c-10.28,5.41-20.5,10.91-30.74,16.4c-0.85,0.45-1.63,1.03-2.91,1.85c1.68,1.3,2.93,2.52,4.39,3.35c1.94,1.11,4.05,1.93,6.1,2.85
		c5.46,2.46,10.92,4.91,16.39,7.34c4.45,1.98,8.91,3.92,13.36,5.87c2.51,1.1,5.1,2.07,7.53,3.32c5.33,2.74,5.76,3.51,5.95,9.47
		c0.75,0.34,1.69,0.64,2.47,1.18c0.66,0.45,1.13,1.18,1.46,2.45c-0.87-0.08-1.81,0.02-2.6-0.27c-3.39-1.27-6.76-2.58-10.07-4.04
		c-5.73-2.51-11.56-4.58-17.72-5.88c-4.36-0.92-8.6-2.58-12.8-4.15c-7.01-2.63-13.92-5.52-20.94-8.15
		c-2.17-0.81-4.49-1.53-7.14-0.93c-1.84,5.4-3.68,10.79-5.59,16.4c-5.94-0.57-9.99-3.78-14.3-7.13C2.85,93.87,5.68,80.34,8.56,66.56
		z"/>
	<path class="st0" d="M130.5,113.17c-5.06,0.28-9.61-1.09-13.67-4.14c-1.19-0.9-2.5-1.63-3.77-2.43
		c-7.27-4.56-9.56-13.56-5.48-21.23c3.5-6.59,17.54-15.38,25.38-14.3c5.76,0.8,11.27,2.07,16.18,5.29
		c7.4,4.86,9.64,12.14,6.81,20.52c-3.54,10.5-11.42,14.87-21.71,16.1C133,113.13,131.75,113.12,130.5,113.17z M130.62,84.59
		c-0.74,0.07-1.37,0.05-1.95,0.19c-0.72,0.18-1.44,0.43-2.1,0.77c-2.89,1.51-4.64,5.17-4.15,8.56c0.54,3.68,3.03,6.53,6.31,7.01
		c4.94,0.72,8.87-1.36,12.44-4.33c-1.23-3.45-3.56-2.3-5.5-1.8C131.98,92.48,132.75,88.07,130.62,84.59z"/>
	<path class="st0" d="M420.83,51.08c0.5,0.75,0.82,1.22,1.14,1.69c3.6-0.32,5.6-4.53,10.18-4.09c-2.51,3.38-5.28,5.64-8.01,7.96
		c-2.65,2.25-5.7,4.23-7.76,6.94c-6.48,8.54-12.84,17.21-18.72,26.18c-2.7,4.11-4.27,8.99-6.19,13.59
		c-1.83,4.37-3.41,8.85-5.17,13.25c-0.5,1.25-1.25,2.39-1.93,3.65c-1.4,0-2.62,0-3.81,0c-3.22-2.89-3.51-6.11-2.04-10.13
		c2.69-7.4,0.18-14.28-6.38-18.69c-0.49,0.65-1.06,1.28-1.48,1.99c-2.37,3.97-4.78,7.91-7.02,11.94c-1.63,2.93-3.11,5.96-4.48,9.02
		c-0.85,1.9-1.97,3.07-4.19,3.05c-3.09-0.02-6.23,0.36-9.22-1.85c2.24-6.12,4.23-12.24,7.41-17.91c2.13-3.81,4.1-7.71,6.14-11.57
		c0.35-0.66,0.61-1.4,1.1-1.95c2.81-3.19,5.27-6.61,7.27-10.38c0.39-0.73,1.13-1.36,1.85-1.8c2.23-1.36,4.68-0.52,5.86,1.86
		c3.22,6.47,6.44,12.93,9.69,19.45c1.85-0.21,2.41-1.54,3.09-2.65c2.2-3.63,4.24-7.35,6.52-10.93c3.77-5.92,8.25-11.27,13.25-16.2
		c3.28-3.25,6.41-6.66,9.67-9.93C418.53,52.64,419.7,51.94,420.83,51.08z"/>
	<path class="st0" d="M188.11,91.64c2.48,2.22,4.52,4.2,6.71,5.98c6.89,5.57,13.84,11.06,20.74,16.62c0.92,0.74,1.69,1.68,3.02,3.03
		c-5.7-0.1-10.33-1.3-14.85-3.18c-1.81-0.76-3.81-1.04-5.67-1.68c-2.22-0.77-4.49-1.49-6.56-2.59c-2.42-1.28-4.64-2.93-6.93-4.45
		c-2.35-1.55-4.9-2.36-7.91-2.29c-1.07,2.25-2.05,4.53-3.2,6.72c-1.85,3.51-3.41,4.32-7.29,3.61c-3.05-0.55-6.04-1.36-9.42-2.14
		c0.18-1.59,0.13-2.97,0.52-4.21c1.22-3.92,2.56-7.82,3.95-11.69c2.14-5.99,4.55-11.88,6.49-17.94c1.58-4.94,3.15-8.01,10.59-4.15
		c0.44,0.23,0.85,0.51,1.52,0.92c-0.39,2.72-0.78,5.5-1.23,8.69c1.08-0.2,1.97-0.14,2.61-0.51c2.47-1.44,4.91-2.95,7.27-4.58
		c1.84-1.28,3.49-2.84,5.31-4.15c3.29-2.37,6.87-4,11.04-4.19c1.6-0.07,3.17-0.63,4.77-0.9c1.45-0.24,2.91-0.39,4.79,0.04
		c-1.35,1.53-2.54,3.25-4.09,4.54c-4.88,4.08-9.94,7.95-14.86,11.98C193.05,87.09,190.81,89.23,188.11,91.64z"/>
	<path class="st0" d="M306.11,72.41c4.64-1.07,8.48-1.95,12.5-2.87c0.52,1.81-0.47,3.28-1.33,4.75c-0.88,1.51-1.95,2.91-2.73,4.46
		c-0.58,1.16-0.83,2.49-1.37,4.18c2.7,0.21,4.9,0.49,7.11,0.52c2.18,0.04,3.72-1.06,4.73-3.06c1.01-1.99,2.23-3.87,3.42-5.9
		c3.22,0,6.28,0,9.83,0c-0.67,2.02-1.08,3.83-1.84,5.48c-4.58,9.84-9.18,19.67-13.92,29.43c-1.77,3.65-7.45,6.87-12.39,7.4
		c-0.66-2.12-0.33-4.2,0.51-6.16c1.71-4.01,3.57-7.96,5.32-11.96c0.84-1.91,1.57-3.87,2.45-6.04c-3.5-1.16-6.49-0.33-9.74,0.09
		c-3.03,5.06-6.11,10.19-9.18,15.32c-0.45,0.75-0.84,1.53-1.28,2.29c-3.67,6.26-6.65,7.55-14.2,6.03c-0.4-1.86,0.33-3.61,1.1-5.24
		c1.33-2.82,2.69-5.65,4.41-8.24c5.21-7.83,8.88-16.46,13.21-24.75C303.81,76.07,305.11,74.09,306.11,72.41z"/>
	<path class="st0" d="M262.74,71.85c-0.46,1.48-0.73,2.68-1.2,3.81c-2.74,6.57-5.46,13.14-8.31,19.66
		c-2.46,5.66-5.73,10.79-10.22,15.1c-2.55,2.45-5.55,3.77-9.03,4.03c-4.14,0.32-8.22,0.22-12.17-1.38
		c-2.92-1.18-5.16-3.01-6.44-5.91c-1.06-2.39-2.2-4.77-3.04-7.24c-0.33-0.96-0.19-2.25,0.16-3.23c2.57-7.3,5.23-14.57,7.9-21.83
		c0.8-2.17,2.44-3.42,4.69-3.87c3.05-0.62,6.11-1.23,9.62-1.93c-0.17,1.2-0.11,2.19-0.45,3.01c-1.75,4.27-3.5,8.54-5.46,12.72
		c-1.6,3.42-3.07,6.85-3.39,10.64c-0.1,1.22,0,2.48,0.16,3.7c0.31,2.26,1.41,4.06,3.68,4.76c2.33,0.73,4.27-0.34,5.65-2.04
		c1.88-2.31,3.76-4.71,5.13-7.34c3.93-7.52,7.59-15.18,11.38-22.78c0.38-0.75,0.9-1.43,1.23-1.96
		C256,70.47,259.12,71.11,262.74,71.85z"/>
	<path class="st0" d="M249.09,116.98c1.77-1.41,3.31-2.61,4.82-3.86c3.47-2.85,6.97-5.66,10.34-8.63c1.29-1.14,2.44-2.54,3.29-4.03
		c1.37-2.42,0.61-4.33-1.93-5.43c-1.02-0.45-2.14-0.67-3.19-1.07c-2.49-0.96-3.34-2.32-2.7-4.95c0.34-1.4,0.96-2.92,1.92-3.95
		c7.14-7.67,14.32-15.3,23.31-20.95c2.39-1.5,4.32-3.71,6.54-5.51c0.78-0.63,1.78-1,2.82-1.57c1.02,2.81-0.66,4.64-1.68,7.13
		c3.18-0.66,5.8-1.2,8.89-1.84c-0.87,2.27-2.08,3.64-3.6,4.87c-4.75,3.86-9.44,7.77-14.13,11.7c-1.03,0.86-1.94,1.86-3.29,3.17
		c1.99,0.95,3.53,1.68,5.08,2.41c4.89,2.32,6.16,5.95,3.55,10.69c-1.02,1.84-2.28,3.59-3.65,5.19c-3.42,3.97-7.08,7.73-10.43,11.76
		c-2.47,2.97-6.08,3.75-9.25,5.35c-0.93,0.47-2.75,0.34-3.53-0.3c-2.57-2.09-5.1-1.39-7.77-0.59
		C252.91,117.04,251.36,118.1,249.09,116.98z"/>
	<path class="st0" d="M107.95,113.79c-2.1-0.67-3.76-1.04-5.28-1.73c-1.45-0.66-2.75-1.65-4.12-2.5c-1.52,0.75-2.91,1.45-4.07,2.02
		c-0.62-0.31-0.93-0.36-1.04-0.54c-3.64-5.92-8.66-10.9-11.64-17.32c-1.18-2.55-3.15-4.76-4.9-7.02c-2.06-2.66-4.35-5.14-6.37-7.83
		c-0.94-1.25-1.46-2.8-2.5-4.87c4.5,0.52,7.9-0.78,10.61-3.15c5.04,1.61,5.34,7.54,10.12,9.64c3.12-3.44,6.26-6.9,9.59-10.56
		c1.48,0.8,2.76,1.5,3.87,2.1c3.91-1.23,7.69-2.44,11.5-3.59c0.4-0.12,0.92,0.18,1.91,0.4c-0.82,1.11-1.28,2.18-2.08,2.75
		c-4.98,3.51-8.36,8.54-12.45,12.9c-1.53,1.64-3,3.34-4.51,5c-2.03,2.26-2.23,2.96-0.59,5.61c1.77,2.86,3.84,5.53,5.74,8.31
		c1.9,2.78,3.75,5.58,5.59,8.4C107.57,112.2,107.61,112.69,107.95,113.79z"/>
	<path class="st0" d="M329.59,115.13c1.04-10.3,8.12-28.02,15.83-39.78c4.25-0.87,8.45-1.72,13.08-2.66
		c-0.3,1.11-0.41,2.06-0.79,2.86c-4.23,8.89-8.53,17.75-12.77,26.63c-0.8,1.68-1.42,3.45-2.15,5.18c-0.92,2.18-1.69,4.45-2.82,6.51
		C337.08,119.13,334.05,119.49,329.59,115.13z"/>
	<path class="st0" d="M278.25,0.68c3.05,0,5.39,0,8.11,0c0.54,2.98,1.07,5.88,1.58,8.79c0.52,2.93,1.02,5.87,1.88,8.84
		c1.94-5.68,2.09-11.73,3.8-17.57c2.59,0,5.02,0,7.7,0c0,10.13,0,20.06,0,30.33c-1.4,0-2.8,0-4.64,0c0-6.99,0-13.98,0-20.96
		c-0.27-0.02-0.55-0.04-0.82-0.06c-1.22,6.92-2.45,13.84-3.72,21.05c-1.49,0-2.88,0-4.47,0c-1.29-7.23-2.55-14.29-3.81-21.36
		c-0.26,0.02-0.51,0.04-0.77,0.05c0,6.97,0,13.95,0,21.36c-1.65,0.09-2.93,0.16-4.69,0.25C278.1,21.07,278.36,11.05,278.25,0.68z"/>
	<path class="st0" d="M193.95,0.59c3.42,0,6.64-0.07,9.86,0.02c3.02,0.08,5.14,1.67,6.48,4.33c0.34,0.67,0.69,1.34,0.89,2.05
		c1.62,5.75,1.77,11.57,0.23,17.32c-1.33,4.98-4.12,6.96-9.23,7.06c-2.71,0.06-5.43,0.01-8.04,0.01
		C193.31,28.3,193.17,5.13,193.95,0.59z M199.73,24.14c4.25,0.88,5.82,0.15,6.24-3.61c0.36-3.16,0.27-6.47-0.25-9.61
		c-0.53-3.25-2.1-3.89-5.99-3.25C199.73,13.14,199.73,18.66,199.73,24.14z"/>
	<path class="st0" d="M242.91,6.82c0,2.13,0,3.58,0,5.46c3.23,0,6.29,0,9.63,0c0,2.09,0,3.75,0,5.78c-3.21,0-6.28,0-9.65,0
		c0,2.27,0,4.2,0,6.54c3.53,0,7.09,0,10.96,0c0,2.31,0,4.23,0,6.15c-2.67,0.82-13.36,0.94-17.13,0.13c0-9.89,0-19.82,0-29.73
		c2.77-0.76,11.9-0.91,16.61-0.25c0,1.63,0,3.32,0,5.49C249.99,6.53,246.58,6.67,242.91,6.82z"/>
	<path class="st0" d="M170.33,31.16c-2.21,0-4.02,0-6.07,0c-0.45-1.46-0.91-2.96-1.47-4.76c-1.23-0.08-2.43-0.19-3.64-0.24
		c-1.11-0.04-2.22-0.01-3.64-0.01c-0.52,1.65-1,3.14-1.58,4.95c-1.79,0-3.69,0-5.93,0c2.59-10.2,5.12-20.18,7.7-30.34
		c1.23-0.08,2.32-0.19,3.41-0.23c0.99-0.04,1.98-0.01,3.4-0.01C165.11,10.69,167.68,20.75,170.33,31.16z M161.66,19.82
		c-0.77-3.65-1.44-6.81-2.1-9.97c-1.75,3.2-2.61,6.38-2.6,9.97C158.48,19.82,159.66,19.82,161.66,19.82z"/>
	<path class="st0" d="M363.61,26.46c-0.49,1.71-0.89,3.12-1.34,4.72c-1.88,0-3.69,0-5.95,0c2.59-10.25,5.12-20.22,7.69-30.39
		c2.31,0,4.48,0,6.92,0c2.56,10.05,5.1,20.03,7.72,30.34c-2.16,0-4.07,0-6.14,0c-0.43-1.51-0.84-2.92-1.27-4.41
		C368.77,25.75,366.35,26.09,363.61,26.46z M367.89,9.54c-0.31-0.03-0.62-0.05-0.93-0.08c-0.64,3.32-1.28,6.63-1.99,10.3
		c1.93,0.13,3.32,0.68,4.86-0.59C369.19,15.98,368.54,12.76,367.89,9.54z"/>
	<path class="st0" d="M69.66,0.7c2.39,0,4.48,0,6.84,0c2.56,10.09,5.09,20.08,7.66,30.26c-0.95,0.19-1.53,0.39-2.13,0.41
		c-1.23,0.05-2.46,0.02-3.79,0.02c-0.56-1.78-1.03-3.29-1.57-4.99c-2.41,0-4.73,0-7.32,0c-0.49,1.49-0.98,2.98-1.56,4.74
		c-1.75,0-3.55,0-5.88,0C64.52,20.91,67.08,10.84,69.66,0.7z M75.43,19.75c-0.7-3.66-1.34-6.97-2.05-10.66
		c-1.64,2.87-2.59,7.49-2.31,10.66C72.34,19.75,73.62,19.75,75.43,19.75z"/>
	<path class="st0" d="M125.85,9.31c-1.89,0.63-3.38,1.13-4.95,1.66c-0.64-1.02-1.07-1.91-1.68-2.66c-1.71-2.09-4.05-2.03-5.62,0.19
		c-0.56,0.79-0.91,1.78-1.14,2.72c-0.8,3.32-0.76,6.66-0.01,10.01c0.45,1.99,1.4,3.5,3.5,3.9c1.66,0.32,3.17-0.88,4.14-3.11
		c0.34-0.78,0.58-1.6,0.98-2.72c1.74,0.8,3.27,1.5,5.11,2.35c-0.67,2-1.11,3.8-1.86,5.45c-1.34,2.94-3.64,4.66-6.98,4.84
		c-3.64,0.2-6.8-0.85-8.56-4.18c-4.01-7.55-4.03-15.33-0.43-23c1.63-3.48,4.84-4.93,8.65-4.76c3.76,0.17,6.25,2.23,7.65,5.64
		C125.06,6.68,125.34,7.76,125.85,9.31z"/>
	<path class="st0" d="M327.09,31.08c0-10.09,0-20.02,0-30.24c1.85,0,3.63,0,5.62,0c0,10.07,0,19.99,0,30.24
		C330.89,31.08,329.12,31.08,327.09,31.08z"/>
	<path class="st0" d="M349.98,70.3c-0.48-8.55,6.29-14.39,14.19-12.24C365.07,65.57,358.13,71.56,349.98,70.3z"/>
</g>
</svg>
