<?xml version="1.0" encoding="utf-8"?>
<!-- Generator: Adobe Illustrator 23.0.1, SVG Export Plug-In . SVG Version: 6.00 Build 0)  -->
<svg version="1.1" id="Layer_1" xmlns="http://www.w3.org/2000/svg" xmlns:xlink="http://www.w3.org/1999/xlink" x="0px" y="0px"
	 viewBox="0 0 256 256" style="enable-background:new 0 0 256 256;" xml:space="preserve">
<style type="text/css">
	.st0{fill:#FFC805;}
</style>
<g>
	<path class="st0" d="M46.7,91.7c6.4-3.5,12.7-4.3,19.9-4.2c0,7.7,0,15.1,0,23.5c2.7-0.6,4.5-0.8,6.2-1.4c24-8.9,48-18,72.1-26.8
		c24.8-9,49.7-17.7,74.5-26.5c4-1.4,8.2-2.3,13.5-3.8c-1.1,4.1-3,6.2-5.8,7.6c-4.3,2.1-8.5,4.1-10.8,8.9c-0.7,1.5-3,2.4-4.7,3.1
		c-12.7,5.5-25,12.1-38.5,15.7c-4.8,1.3-9.4,3.5-13.9,5.8c-19.7,10.4-39.4,20.9-59,31.5c-1.6,0.9-3.1,2-5.6,3.6
		c3.2,2.5,5.6,4.8,8.4,6.4c3.7,2.1,7.8,3.7,11.7,5.5c10.5,4.7,21,9.4,31.5,14.1c8.5,3.8,17.1,7.5,25.6,11.3c4.8,2.1,9.8,4,14.5,6.4
		c10.2,5.3,11.1,6.7,11.4,18.2c1.4,0.7,3.2,1.2,4.7,2.3c1.3,0.9,2.2,2.3,2.8,4.7c-1.7-0.2-3.5,0-5-0.5c-6.5-2.4-13-5-19.3-7.8
		c-11-4.8-22.2-8.8-34-11.3c-8.4-1.8-16.5-5-24.6-8c-13.5-5-26.7-10.6-40.2-15.6c-4.2-1.6-8.6-2.9-13.7-1.8
		c-3.5,10.4-7.1,20.7-10.7,31.5c-11.4-1.1-19.2-7.3-27.5-13.7C35.7,144.1,41.2,118.2,46.7,91.7z"/>
</g>
</svg>
