<?xml version="1.0" standalone="no"?>
<!DOCTYPE svg PUBLIC "-//W3C//DTD SVG 20010904//EN"
 "http://www.w3.org/TR/2001/REC-SVG-20010904/DTD/svg10.dtd">
<svg version="1.0" xmlns="http://www.w3.org/2000/svg"
 width="700.000000pt" height="700.000000pt" viewBox="0 0 700.000000 700.000000"
 preserveAspectRatio="xMidYMid meet">
<metadata>
Created by potrace 1.11, written by Peter Selinger 2001-2013
</metadata>
<g transform="translate(0.000000,700.000000) scale(0.100000,-0.100000)"
fill="#000000" stroke="none">
<path d="M6220 5525 c-130 -34 -204 -58 -450 -145 -80 -28 -266 -94 -415 -147
-148 -52 -340 -120 -425 -150 -85 -31 -191 -68 -235 -83 -88 -31 -609 -218
-775 -279 -231 -86 -496 -184 -705 -261 -120 -45 -235 -87 -255 -94 -76 -28
-346 -128 -365 -137 -11 -5 -63 -24 -115 -43 -52 -19 -106 -39 -120 -45 -43
-18 -373 -138 -410 -149 -19 -6 -57 -13 -83 -17 l-48 -6 1 128 c1 70 1 215 1
320 l-1 193 -99 -5 c-152 -6 -261 -30 -390 -85 -39 -17 -53 -29 -57 -49 -3
-14 -8 -34 -11 -43 -2 -10 -6 -29 -9 -42 -2 -13 -16 -78 -29 -143 -14 -65 -46
-217 -71 -338 -25 -121 -47 -227 -49 -235 -2 -8 -29 -136 -59 -285 -48 -230
-61 -289 -71 -325 -1 -3 -7 -39 -15 -80 -8 -41 -14 -77 -15 -80 -9 -30 -16
-59 -19 -80 -3 -14 -19 -92 -36 -175 -18 -82 -34 -161 -36 -175 -3 -14 -7 -32
-10 -40 -3 -8 -7 -33 -10 -55 -4 -40 -4 -40 78 -101 246 -183 378 -250 576
-294 l84 -18 13 31 c7 18 56 160 109 317 143 423 175 512 181 518 11 11 149 9
214 -4 62 -11 294 -92 388 -135 24 -10 45 -19 47 -19 3 0 123 -47 268 -104
145 -57 331 -129 413 -160 83 -32 159 -61 170 -66 51 -23 390 -140 475 -163
52 -15 172 -46 265 -68 288 -70 491 -140 876 -305 355 -151 477 -195 552 -201
37 -3 67 -3 67 0 0 13 -31 75 -49 98 -11 14 -47 38 -80 53 -33 15 -64 32 -67
38 -4 7 -9 35 -10 62 -12 207 -36 259 -159 345 -62 44 -242 133 -450 222 -104
44 -208 89 -230 99 -105 47 -172 77 -310 137 -82 36 -175 76 -205 90 -30 14
-129 58 -220 98 -91 40 -194 87 -230 103 -36 17 -130 59 -210 95 -80 36 -170
76 -200 90 -30 13 -89 39 -130 57 -165 72 -276 130 -325 171 -11 9 -49 41 -84
69 l-63 53 73 47 c72 46 109 67 294 165 93 50 292 157 380 205 78 43 339 181
460 245 61 32 146 77 190 101 354 191 562 292 670 327 44 14 132 42 195 63
128 40 307 109 418 160 41 19 75 34 78 34 2 0 39 16 81 36 43 20 148 67 233
105 227 101 239 109 271 169 38 71 105 127 234 194 102 54 127 74 160 131 35
59 47 95 32 94 -6 0 -68 -15 -137 -34z"/>
</g>
</svg>
